<svg xmlns="http://www.w3.org/2000/svg" width="16.998" height="17" viewBox="0 0 16.998 17">
  <g id="compartir_negativo" transform="translate(0 0)">
    <path id="Trazado_2505" data-name="Trazado 2505" d="M0,208.289c.022-.049.045-.1.066-.146a.876.876,0,0,1,1.69.305c.008.378,0,.757,0,1.135q0,2.692,0,5.383v.232h13.48v-.208q0-3.241,0-6.482a.879.879,0,0,1,1.755-.088c.007.122,0,.244,0,.366q0,3.287,0,6.573a1.469,1.469,0,0,1-1.217,1.589c-.011,0-.019.014-.029.021H1.245a4.643,4.643,0,0,1-.61-.266A1.511,1.511,0,0,1,0,215.725v-7.436" transform="translate(0 -199.971)" fill="#fff"/>
    <path id="Trazado_2506" data-name="Trazado 2506" d="M120.454,3c-.618.62-1.2,1.2-1.772,1.778a.887.887,0,0,1-.774.29.83.83,0,0,1-.7-.54.843.843,0,0,1,.141-.893,1.938,1.938,0,0,1,.139-.146L120.617.356a.9.9,0,0,1,1.432,0q1.586,1.586,3.171,3.173a.887.887,0,0,1,.148,1.177.875.875,0,0,1-1.356.1c-.552-.544-1.1-1.1-1.646-1.643-.041-.041-.085-.079-.155-.143v.229q0,4.651,0,9.3a.88.88,0,1,1-1.755.113c0-.073,0-.146,0-.22q0-4.6,0-9.191V3" transform="translate(-112.835)" fill="#fff"/>
  </g>
</svg>
