<svg id="Estado_propiedad" xmlns="http://www.w3.org/2000/svg" width="22.175" height="21.801" viewBox="0 0 22.175 21.801">
  <path id="Trazado_2512" data-name="Trazado 2512" d="M241.549,0h5.543q0,1.889.007,3.778A1.376,1.376,0,0,0,248.633,5.3h3.306c.157,0,.314.009.471.014V21.5a.65.65,0,0,1-.626.3q-5.022-.009-10.043,0c-.478,0-.617-.139-.617-.617q0-10.268,0-20.536c0-.413.055-.493.424-.639m4.694,8.467q1.385,0,2.77,0a1.035,1.035,0,0,0,.288-.033.44.44,0,0,0,.31-.467.447.447,0,0,0-.4-.4,1.9,1.9,0,0,0-.2,0h-5.494c-.068,0-.136,0-.2,0a.445.445,0,0,0-.405.388.438.438,0,0,0,.3.473.988.988,0,0,0,.288.035q1.374,0,2.747,0m0,6.5q1.43,0,2.86,0a.452.452,0,0,0,.506-.429.46.46,0,0,0-.494-.47q-2.86-.006-5.719,0a.624.624,0,0,0-.361.145.383.383,0,0,0-.1.472.44.44,0,0,0,.446.278q1.43,0,2.86,0m.025-4.152h-2.319c-.188,0-.375,0-.563,0a.452.452,0,1,0,.007.9h5.652c.045,0,.09,0,.135,0a.449.449,0,0,0-.008-.9c-.067-.005-.135,0-.2,0h-2.7m0,6.509h-1.148c-.585,0-1.171-.005-1.756,0a.445.445,0,0,0-.468.446.454.454,0,0,0,.465.449c.06,0,.12,0,.18,0h5.426a2,2,0,0,0,.247-.011.422.422,0,0,0,.381-.36c.064-.289-.164-.527-.513-.529-.938,0-1.876,0-2.814,0M244.655,4.312c-.412,0-.825,0-1.237,0-.314,0-.512.178-.513.443a.46.46,0,0,0,.508.455q1.226.009,2.452,0a.459.459,0,0,0,.5-.46c-.006-.265-.2-.435-.52-.437-.4,0-.795,0-1.192,0" transform="translate(-230.236 -0.001)" fill="#9d9d9d"/>
  <path id="Trazado_2513" data-name="Trazado 2513" d="M10.051,0c-.021.291-.06.581-.061.872-.006,1.757,0,3.514,0,5.271v.237c-.431.174-.855.308-1.243.509a4.549,4.549,0,0,0,1,8.427c.184.046.246.113.245.309-.009,1.719,0,3.439,0,5.158v1a.764.764,0,0,1-.918-.808A2.378,2.378,0,0,0,6.6,18.664a2.311,2.311,0,0,0-1.531.62.753.753,0,0,1-1.227-.029q-.678-.676-1.354-1.354a.728.728,0,0,1-.022-1.127,2.3,2.3,0,0,0,.46-2.588A2.293,2.293,0,0,0,.748,12.711.72.72,0,0,1,0,11.954Q0,10.907,0,9.86A.718.718,0,0,1,.747,9.1,2.294,2.294,0,0,0,2.924,7.628a2.294,2.294,0,0,0-.46-2.588.728.728,0,0,1,.022-1.127q.692-.694,1.386-1.386A.737.737,0,0,1,5.035,2.5a2.291,2.291,0,0,0,2.4.515A2.31,2.31,0,0,0,9.039,1.2a1.254,1.254,0,0,0,.032-.29A.816.816,0,0,1,9.736,0Z" transform="translate(0 -0.001)" fill="#9d9d9d"/>
  <path id="Trazado_2514" data-name="Trazado 2514" d="M393.441,1.9l4.222,4.316h-3.671c-.458,0-.606-.15-.607-.608q0-1.735,0-3.469V1.923l.056-.022" transform="translate(-375.62 -1.815)" fill="#9d9d9d"/>
</svg>
