<svg id="Precio_venta" xmlns="http://www.w3.org/2000/svg" width="19.513" height="19.513" viewBox="0 0 19.513 19.513">
  <path id="Trazado_2507" data-name="Trazado 2507" d="M9.147,0h1.22c.381.053.764.1,1.143.161a9.768,9.768,0,0,1,7.8,7.607c.089.456.139.919.206,1.379v1.22c-.012.059-.026.118-.035.177a14.107,14.107,0,0,1-.26,1.557,9.6,9.6,0,0,1-7.532,7.211c-.432.1-.879.136-1.319.2H9.147a.832.832,0,0,0-.136-.032,8.821,8.821,0,0,1-2.738-.618A9.618,9.618,0,0,1,.162,11.488C.086,11.119.053,10.741,0,10.367V9.107a.778.778,0,0,0,.034-.134A9.2,9.2,0,0,1,1,5.458,9.619,9.619,0,0,1,8.045.158C8.409.087,8.78.053,9.147,0m1.138,6.126c.142,0,.263,0,.384,0A1.482,1.482,0,0,1,12.2,7.613a.65.65,0,1,0,1.3-.027,2.785,2.785,0,0,0-2.235-2.7c-.316-.057-.643-.057-.985-.085,0-.072,0-.145,0-.218,0-.379.008-.759,0-1.138a.652.652,0,0,0-.851-.635.638.638,0,0,0-.446.634c0,.452,0,.9,0,1.39A2.968,2.968,0,0,0,6.687,5.5a2.724,2.724,0,0,0-.971,2.169,2.683,2.683,0,0,0,.7,1.8,2.917,2.917,0,0,0,2.552.94v2.96A1.541,1.541,0,0,1,7.041,11.9a.627.627,0,0,0-.683-.643.649.649,0,0,0-.613.7,2.784,2.784,0,0,0,2.284,2.683c.3.053.616.052.947.078,0,.075,0,.147,0,.22,0,.393,0,.786,0,1.178a.645.645,0,0,0,1.1.434.693.693,0,0,0,.2-.536c0-.432,0-.864,0-1.329a2.985,2.985,0,0,0,2.24-.631,2.733,2.733,0,0,0,1.015-2.088,2.671,2.671,0,0,0-.586-1.776,2.9,2.9,0,0,0-2.661-1.078Z" transform="translate(0 -0.001)" fill="#9d9d9d"/>
  <path id="Trazado_2508" data-name="Trazado 2508" d="M174.988,153.483a1.591,1.591,0,0,1-1.711-.739,1.414,1.414,0,0,1,.068-1.59,1.582,1.582,0,0,1,1.644-.617Z" transform="translate(-166.028 -144.389)" fill="#9d9d9d"/>
  <path id="Trazado_2509" data-name="Trazado 2509" d="M253.02,258.863v-2.954a1.618,1.618,0,0,1,1.673.639,1.426,1.426,0,0,1,.054,1.592,1.611,1.611,0,0,1-1.727.723" transform="translate(-242.733 -245.487)" fill="#9d9d9d"/>
</svg>
