<svg id="Salón_Social" xmlns="http://www.w3.org/2000/svg" width="22.176" height="26.281" viewBox="0 0 22.176 26.281">
  <path id="Trazado_2510" data-name="Trazado 2510" d="M4.362,26.281H0V0H14.372c-.007.1-.019.2-.019.305q0,12.835,0,25.671c0,.1.012.2.019.305H10.06V20.174h-5.7ZM3.687,3.7H2.171V5.884H3.687Zm2.854,0H5.035V5.889H6.541Zm2.853,0H7.883v2.18H9.394Zm2.866,0H10.744V5.884H12.26ZM3.682,7.717H2.174V9.91H3.682Zm2.858,0H5.034V9.91H6.54ZM7.882,9.9h1.5V7.712h-1.5Zm2.858,0h1.514V7.716H10.741ZM2.17,13.941H3.68V11.749H2.17Zm2.858,0H6.539V11.76H5.028Zm2.857,0h1.5v-2.2h-1.5Zm2.863,0h1.5V11.751h-1.5ZM3.674,15.773h-1.5v2.2h1.5Zm1.358,2.183h1.5V15.767h-1.5Zm2.847,0H9.386V15.775H7.879Zm2.863,0h1.511V15.77H10.742Z" fill="#9d9d9d"/>
  <path id="Trazado_2511" data-name="Trazado 2511" d="M315.888,123v19.968h-6.263c-.007-.093-.019-.186-.019-.28q0-9.682,0-19.364V123Zm-2.351,2.848h-1.5v2.189h1.5Zm-1.509,6.214h1.51v-2.183h-1.51Zm0,4.02h1.508V133.9h-1.508Zm0,4.039h1.5v-2.188h-1.5Z" transform="translate(-293.713 -116.686)" fill="#9d9d9d"/>
  <rect id="Rectángulo_1084" data-name="Rectángulo 1084" width="2.618" height="4.567" transform="translate(5.902 21.714)" fill="#9d9d9d"/>
</svg>
