<svg id="Ubicación" xmlns="http://www.w3.org/2000/svg" xmlns:xlink="http://www.w3.org/1999/xlink" width="34" height="34" viewBox="0 0 34 34">
  <defs>
    <clipPath id="clip-path">
      <rect id="Rectángulo_404" data-name="Rectángulo 404" width="34" height="34" rx="3" transform="translate(1023 470)" fill="#414141"/>
    </clipPath>
  </defs>
  <g id="Enmascarar_grupo_67" data-name="Enmascarar grupo 67" transform="translate(-1023 -470)" clip-path="url(#clip-path)">
    <path id="Trazado_2617" data-name="Trazado 2617" d="M5.951,0h.865c.147.022.294.047.441.067a6.083,6.083,0,0,1,2.7,1.039A6.322,6.322,0,0,1,12.7,5.468c.026.163.049.327.073.491v.866c-.028.174-.056.347-.084.521a10.924,10.924,0,0,1-1.329,3.511A29.26,29.26,0,0,1,6.844,16.8a.552.552,0,0,1-.924,0,30.68,30.68,0,0,1-4.063-5.17A14.453,14.453,0,0,1,.342,8.44,6.42,6.42,0,0,1,.165,4.947a6.313,6.313,0,0,1,1.742-3.1A6.262,6.262,0,0,1,5.411.082L5.951,0M9.577,6.389a3.194,3.194,0,1,0-3.194,3.2,3.2,3.2,0,0,0,3.194-3.2" transform="translate(1033.614 477.214)" fill="#e36900"/>
  </g>
</svg>
